<svg width="36" height="36" viewBox="0 0 36 36" fill="none" xmlns="http://www.w3.org/2000/svg">
<rect width="36" height="36" rx="18" fill="url(#paint0_linear_971_108)"/>
<g transform="translate(6 6)">
<path fill-rule="evenodd" d="M12.65 10C11.83 7.67 9.61 6 7 6c-3.31 0-6 2.69-6 6s2.69 6 6 6c2.61 0 4.83-1.67 5.65-4H17v4h4v-4h2v-4H12.65zM7 14c-1.1 0-2-.9-2-2s.9-2 2-2 2 .9 2 2-.9 2-2 2z" fill="white"/>
</g>
<defs>
<linearGradient id="paint0_linear_971_108" x1="31" y1="27.5" x2="6.5" y2="7" gradientUnits="userSpaceOnUse">
<stop stop-color="#21B2CB"/>
<stop offset="1" stop-color="#3EC5D2"/>
</linearGradient>
</defs>
</svg>
